<?xml version="1.0" standalone="no"?>
<!DOCTYPE svg PUBLIC "-//W3C//DTD SVG 20010904//EN"
 "http://www.w3.org/TR/2001/REC-SVG-20010904/DTD/svg10.dtd">
<svg version="1.0" xmlns="http://www.w3.org/2000/svg"
 width="512.000000pt" height="512.000000pt" viewBox="0 0 512.000000 512.000000"
 preserveAspectRatio="xMidYMid meet">
<metadata>
Created by potrace 1.15, written by Peter Selinger 2001-2017
</metadata>
<g transform="translate(0.000000,512.000000) scale(0.100000,-0.100000)"
fill="#0e60e4" stroke="none">
<path fill="#0e60e4" stroke="none" d="M0 2560 l0 -2560 2560 0 2560 0 0 2560
0 2560 -2560 0 -2560 0 0 -2560z"/>
<path fill="#ffffff" stroke="none" d="M3295 4019 c53 -13 119 -67 145 -120
19 -37 20 -64 20 -990 0 -946 0 -953 -21 -996 -25 -53 -86 -106 -138 -121 -27
-9 -239 -12 -752 -12 -797 0 -753 -3 -827 71 -72 71 -67 -8 -70 1029 -2 657 0
948 8 979 19 76 80 137 160 162 41 12 1424 11 1475 -2z"/>
<path fill="#ffffff" stroke="none" d="M1484 1666 c55 -30 94 -82 105 -141 5
-27 7 -53 5 -57 -3 -5 -32 -8 -64 -8 l-59 0 -11 38 c-12 46 -19 56 -47 71 -37
19 -80 13 -113 -16 -35 -32 -49 -79 -50 -168 0 -123 38 -185 115 -185 49 0 78
23 95 75 l12 35 64 0 c57 0 65 -2 61 -17 -3 -10 -8 -34 -11 -53 -8 -46 -57
-105 -109 -132 -59 -30 -166 -31 -222 -1 -47 25 -85 64 -111 113 -16 29 -19
57 -19 171 0 133 0 136 30 184 70 114 214 154 329 91z"/>
<path fill="#ffffff" stroke="none" d="M3220 1630 l0 -60 -90 0 -90 0 0 -240
0 -241 -62 3 -63 3 -3 238 -2 237 -85 0 -85 0 0 60 0 60 240 0 240 0 0 -60z"/>
<path fill="#ffffff" stroke="none" d="M1953 1513 c61 -43 87 -102 87 -193 0
-90 -20 -141 -73 -187 -90 -79 -237 -62 -306 35 -47 66 -51 214 -8 285 45 73
101 99 201 92 45 -2 69 -10 99 -32z"/>
<path fill="#ffffff" stroke="none" d="M2406 1525 c24 -15 27 -15 52 2 20 13
46 18 100 18 72 0 74 -1 107 -36 29 -32 34 -45 40 -110 3 -41 5 -126 3 -189
l-3 -115 -60 0 -60 0 -5 162 c-3 89 -9 165 -13 169 -4 4 -24 8 -44 8 -58 0
-63 -16 -63 -191 l0 -153 -65 0 -65 0 0 158 c0 86 -4 162 -8 168 -12 18 -48
25 -75 15 l-27 -10 -2 -163 -3 -163 -62 -3 c-58 -3 -63 -1 -68 20 -3 13 -4
113 -3 223 l3 200 88 1 c48 1 91 5 95 9 12 12 112 -2 138 -20z"/>
<path fill="#ffffff" stroke="none" d="M3464 1541 c44 -11 93 -52 111 -96 8
-17 17 -63 20 -103 l8 -72 -137 0 c-75 0 -136 -4 -136 -9 0 -4 9 -20 21 -35
30 -38 101 -37 141 1 l28 27 36 -36 c31 -31 35 -38 25 -56 -6 -12 -33 -34 -59
-49 -39 -23 -58 -28 -114 -27 -76 0 -125 26 -175 90 -25 33 -28 47 -31 124 -3
77 -1 93 22 138 47 92 130 128 240 103z"/>
<path fill="#ffffff" stroke="none" d="M3884 1541 c65 -16 126 -90 126 -156 0
-24 -2 -25 -60 -25 -44 0 -60 4 -60 14 0 7 -9 25 -21 40 -26 33 -62 34 -94 1
-22 -21 -25 -33 -25 -97 0 -92 15 -118 69 -118 38 0 61 16 74 53 6 15 16 18
59 15 46 -3 53 -6 56 -26 2 -12 -8 -43 -23 -67 -69 -119 -256 -120 -332 -2
-23 35 -28 55 -31 125 -5 99 12 152 62 201 48 46 117 61 200 42z"/>
<path fill="#0e60e4" stroke="none" d="M1896 3738 c-3 -29 -6 -151 -6 -270 l0
-218 670 0 670 0 0 270 0 270 -664 0 -663 0 -7 -52z"/>
<path fill="#ffffff" stroke="none" d="M2338 3518 l-3 -173 -109 -3 c-81 -2
-112 1 -118 10 -9 15 -11 322 -1 331 3 4 57 7 120 7 l113 0 -2 -172z"/>
<path fill="#0e60e4" stroke="none" d="M1892 2513 l3 -498 668 -3 667 -2 0
500 0 500 -670 0 -670 0 2 -497z"/>
<path fill="#ffffff" stroke="none" d="M2338 2623 l2 -283 -115 0 -115 0 0
285 0 286 113 -3 112 -3 3 -282z"/>
<path fill="#0e60e4" stroke="none" d="M1785 1416 c-41 -41 -46 -135 -10 -190
22 -33 82 -37 110 -6 23 25 32 115 16 162 -19 58 -76 74 -116 34z"/>
<path fill="#0e60e4" stroke="none" d="M3355 1415 c-39 -38 -32 -45 45 -45 39
0 70 3 70 6 0 11 -23 49 -34 56 -22 15 -57 8 -81 -17z"/>
</g>
</svg>
