<svg baseProfile="full" width="300" height="300" viewBox="0 0 300 300" version="1.1"
xmlns="http://www.w3.org/2000/svg" xmlns:ev="http://www.w3.org/2001/xml-events"
xmlns:xlink="http://www.w3.org/1999/xlink">

<style>rect.s{mask:url(#mask);}</style>
<defs>
  <pattern id="white" width="4" height="4" patternUnits="userSpaceOnUse" patternTransform="rotate(45)">
    <rect width="2" height="2" transform="translate(0,0)" fill="white"></rect>
  </pattern>
  <mask id="mask">
    <rect x="0" y="0" width="100%" height="100%" fill="url(#white)"></rect>
  </mask>
</defs>

<circle cx="150.0" cy="150.0" fill="#e05d44" r="28.5" stroke="white" stroke-width="1" />
<path d="M 150.0 178.5 L 150.0 207.0 A 57.0 57.0 0 0 0 180.169678914 198.36104294 L 165.084839457 174.18052147 A 28.5 28.5 0 0 1 150.0 178.5 z" fill="#e05d44" stroke="white" stroke-width="1" />
<path d="M 165.084839457 174.18052147 L 180.169678914 198.36104294 A 57.0 57.0 0 0 0 199.098162422 178.954627381 L 174.549081211 164.477313691 A 28.5 28.5 0 0 1 165.084839457 174.18052147 z" fill="#a9a91d" stroke="white" stroke-width="1" />
<path d="M 180.169678914 198.36104294 L 195.254518371 222.54156441 A 85.5 85.5 0 0 0 200.993705895 218.62865261 L 183.99580393 195.752435073 A 57.0 57.0 0 0 1 180.169678914 198.36104294 z" fill="#a2b710" stroke="white" stroke-width="1" />
<path d="M 183.99580393 195.752435073 L 200.993705895 218.62865261 A 85.5 85.5 0 0 0 208.731065068 212.136237382 L 189.154043379 191.424158255 A 57.0 57.0 0 0 1 183.99580393 195.752435073 z" fill="#e05d44" stroke="white" stroke-width="1" />
<path d="M 200.993705895 218.62865261 L 217.991607861 241.504870147 A 114.0 114.0 0 0 0 224.560053006 236.236874339 L 205.920039755 214.677655754 A 85.5 85.5 0 0 1 200.993705895 218.62865261 z" fill="#e05d44" stroke="white" stroke-width="1" />
<path d="M 205.920039755 214.677655754 L 224.560053006 236.236874339 A 114.0 114.0 0 0 0 228.308086757 232.848316509 L 208.731065068 212.136237382 A 85.5 85.5 0 0 1 205.920039755 214.677655754 z" fill="#4c1" stroke="white" stroke-width="1" />
<path d="M 189.154043379 191.424158255 L 208.731065068 212.136237382 A 85.5 85.5 0 0 0 217.819692541 202.06476067 L 195.213128361 184.709840447 A 57.0 57.0 0 0 1 189.154043379 191.424158255 z" fill="#a2b511" stroke="white" stroke-width="1" />
<path d="M 195.213128361 184.709840447 L 217.819692541 202.06476067 A 85.5 85.5 0 0 0 223.647243633 193.431941072 L 199.098162422 178.954627381 A 57.0 57.0 0 0 1 195.213128361 184.709840447 z" fill="#4c1" stroke="white" stroke-width="1" />
<path d="M 174.549081211 164.477313691 L 199.098162422 178.954627381 A 57.0 57.0 0 1 0 93.4293715546 156.983122317 L 121.714685777 153.491561158 A 28.5 28.5 0 1 1 174.549081211 164.477313691 z" fill="#e05d44" stroke="white" stroke-width="1" />
<path d="M 199.098162422 178.954627381 L 223.647243633 193.431941072 A 85.5 85.5 0 0 0 228.632031764 183.574597252 L 202.421354509 172.383064835 A 57.0 57.0 0 0 1 199.098162422 178.954627381 z" fill="#e05d44" stroke="white" stroke-width="1" />
<path d="M 202.421354509 172.383064835 L 228.632031764 183.574597252 A 85.5 85.5 0 0 0 230.42442364 120.979971017 L 203.616282427 130.653314011 A 57.0 57.0 0 0 1 202.421354509 172.383064835 z" fill="#e05d44" stroke="white" stroke-width="1" />
<path d="M 228.632031764 183.574597252 L 254.842709019 194.766129669 A 114.0 114.0 0 0 0 258.90422341 183.702672348 L 231.678167558 175.277004261 A 85.5 85.5 0 0 1 228.632031764 183.574597252 z" fill="#e05d44" stroke="white" stroke-width="1" />
<path d="M 231.678167558 175.277004261 L 258.90422341 183.702672348 A 114.0 114.0 0 0 0 262.614528034 167.719144328 L 234.460896025 163.289358246 A 85.5 85.5 0 0 1 231.678167558 175.277004261 z" fill="#e05d44" stroke="white" stroke-width="1" />
<path d="M 234.460896025 163.289358246 L 262.614528034 167.719144328 A 114.0 114.0 0 0 0 263.99956253 149.68417892 L 235.499671898 149.76313419 A 85.5 85.5 0 0 1 234.460896025 163.289358246 z" fill="#e05d44" stroke="white" stroke-width="1" />
<path d="M 235.499671898 149.76313419 L 263.99956253 149.68417892 A 114.0 114.0 0 0 0 263.166858296 136.242740703 L 234.875143722 139.682055527 A 85.5 85.5 0 0 1 235.499671898 149.76313419 z" fill="#e05d44" stroke="white" stroke-width="1" />
<path d="M 234.875143722 139.682055527 L 263.166858296 136.242740703 A 114.0 114.0 0 0 0 261.67665609 127.101867225 L 233.757492067 132.826400419 A 85.5 85.5 0 0 1 234.875143722 139.682055527 z" fill="#e05d44" stroke="white" stroke-width="1" />
<path d="M 233.757492067 132.826400419 L 261.67665609 127.101867225 A 114.0 114.0 0 0 0 257.232564853 111.306628022 L 230.42442364 120.979971017 A 85.5 85.5 0 0 1 233.757492067 132.826400419 z" fill="#e05d44" stroke="white" stroke-width="1" />
<path d="M 203.616282427 130.653314011 L 230.42442364 120.979971017 A 85.5 85.5 0 0 0 105.417290111 77.0436296205 L 120.278193407 101.362419747 A 57.0 57.0 0 0 1 203.616282427 130.653314011 z" fill="#e05d44" stroke="white" stroke-width="1" />
<path d="M 230.42442364 120.979971017 L 257.232564853 111.306628022 A 114.0 114.0 0 0 0 250.367929396 95.9418946993 L 225.275947047 109.456421024 A 85.5 85.5 0 0 1 230.42442364 120.979971017 z" fill="#e05d44" stroke="white" stroke-width="1" />
<path d="M 225.275947047 109.456421024 L 250.367929396 95.9418946993 A 114.0 114.0 0 0 0 246.999657169 90.1078760679 L 222.749742877 105.080907051 A 85.5 85.5 0 0 1 225.275947047 109.456421024 z" fill="#e05d44" stroke="white" stroke-width="1" />
<path d="M 222.749742877 105.080907051 L 246.999657169 90.1078760679 A 114.0 114.0 0 0 0 202.101672961 48.6026840856 L 189.076254721 73.9520130642 A 85.5 85.5 0 0 1 222.749742877 105.080907051 z" fill="#e05d44" stroke="white" stroke-width="1" />
<path d="M 246.999657169 90.1078760679 L 271.249571461 75.1348450849 A 142.5 142.5 0 0 0 266.917550657 68.5350606182 L 243.534040525 84.8280484945 A 114.0 114.0 0 0 1 246.999657169 90.1078760679 z" fill="#e05d44" stroke="white" stroke-width="1" />
<path d="M 243.534040525 84.8280484945 L 266.917550657 68.5350606182 A 142.5 142.5 0 0 0 259.245872478 58.5036101995 L 237.396697982 76.8028881596 A 114.0 114.0 0 0 1 243.534040525 84.8280484945 z" fill="#e05d44" stroke="white" stroke-width="1" />
<path d="M 237.396697982 76.8028881596 L 259.245872478 58.5036101995 A 142.5 142.5 0 0 0 249.215757454 47.713718061 L 229.372605963 68.1709744488 A 114.0 114.0 0 0 1 237.396697982 76.8028881596 z" fill="#e05d44" stroke="white" stroke-width="1" />
<path d="M 229.372605963 68.1709744488 L 249.215757454 47.713718061 A 142.5 142.5 0 0 0 228.305029375 30.9429868737 L 212.6440235 54.7543894989 A 114.0 114.0 0 0 1 229.372605963 68.1709744488 z" fill="#e05d44" stroke="white" stroke-width="1" />
<path d="M 212.6440235 54.7543894989 L 228.305029375 30.9429868737 A 142.5 142.5 0 0 0 220.221890697 26.0034836501 L 206.177512558 50.8027869201 A 114.0 114.0 0 0 1 212.6440235 54.7543894989 z" fill="#e05d44" stroke="white" stroke-width="1" />
<path d="M 206.177512558 50.8027869201 L 220.221890697 26.0034836501 A 142.5 142.5 0 0 0 215.127091202 23.253355107 L 202.101672961 48.6026840856 A 114.0 114.0 0 0 1 206.177512558 50.8027869201 z" fill="#e05d44" stroke="white" stroke-width="1" />
<path d="M 189.076254721 73.9520130642 L 202.101672961 48.6026840856 A 114.0 114.0 0 0 0 196.406443117 45.8729524226 L 184.804832338 71.9047143169 A 85.5 85.5 0 0 1 189.076254721 73.9520130642 z" fill="#e05d44" stroke="white" stroke-width="1" />
<path d="M 184.804832338 71.9047143169 L 196.406443117 45.8729524226 A 114.0 114.0 0 0 0 105.137071947 45.1986751682 L 116.35280396 71.3990063762 A 85.5 85.5 0 0 1 184.804832338 71.9047143169 z" fill="#e05d44" stroke="white" stroke-width="1" />
<path d="M 196.406443117 45.8729524226 L 208.008053897 19.8411905282 A 142.5 142.5 0 0 0 204.62355759 18.3849668303 L 193.698846072 44.7079734643 A 114.0 114.0 0 0 1 196.406443117 45.8729524226 z" fill="#e05d44" stroke="white" stroke-width="1" />
<path d="M 193.698846072 44.7079734643 L 204.62355759 18.3849668303 A 142.5 142.5 0 0 0 197.251032763 15.5619477126 L 187.80082621 42.4495581701 A 114.0 114.0 0 0 1 193.698846072 44.7079734643 z" fill="#e05d44" stroke="white" stroke-width="1" />
<path d="M 187.80082621 42.4495581701 L 197.251032763 15.5619477126 A 142.5 142.5 0 0 0 188.214597318 12.7196497972 L 180.571677855 40.1757198378 A 114.0 114.0 0 0 1 187.80082621 42.4495581701 z" fill="#e05d44" stroke="white" stroke-width="1" />
<path d="M 180.571677855 40.1757198378 L 188.214597318 12.7196497972 A 142.5 142.5 0 0 0 133.979681428 8.403392015 L 137.183745143 36.722713612 A 114.0 114.0 0 0 1 180.571677855 40.1757198378 z" fill="#e05d44" stroke="white" stroke-width="1" />
<path d="M 137.183745143 36.722713612 L 133.979681428 8.403392015 A 142.5 142.5 0 0 0 109.761292895 13.2992448796 L 117.809034316 40.6393959037 A 114.0 114.0 0 0 1 137.183745143 36.722713612 z" fill="#e05d44" stroke="white" stroke-width="1" />
<path d="M 117.809034316 40.6393959037 L 109.761292895 13.2992448796 A 142.5 142.5 0 0 0 96.3502482539 17.9850230558 L 107.080198603 44.3880184446 A 114.0 114.0 0 0 1 117.809034316 40.6393959037 z" fill="#e05d44" stroke="white" stroke-width="1" />
<path d="M 107.080198603 44.3880184446 L 96.3502482539 17.9850230558 A 142.5 142.5 0 0 0 93.9213399335 18.9983439603 L 105.137071947 45.1986751682 A 114.0 114.0 0 0 1 107.080198603 44.3880184446 z" fill="#e05d44" stroke="white" stroke-width="1" />
<path d="M 116.35280396 71.3990063762 L 105.137071947 45.1986751682 A 114.0 114.0 0 0 0 90.5563868147 52.7248394939 L 105.417290111 77.0436296205 A 85.5 85.5 0 0 1 116.35280396 71.3990063762 z" fill="#e05d44" stroke="white" stroke-width="1" />
<path d="M 120.278193407 101.362419747 L 105.417290111 77.0436296205 A 85.5 85.5 0 0 0 96.629914885 83.2026646129 L 114.419943257 105.468443075 A 57.0 57.0 0 0 1 120.278193407 101.362419747 z" fill="#e05d44" stroke="white" stroke-width="1" />
<path d="M 114.419943257 105.468443075 L 96.629914885 83.2026646129 A 85.5 85.5 0 0 0 88.4635483078 90.6407958852 L 108.975698872 110.427197257 A 57.0 57.0 0 0 1 114.419943257 105.468443075 z" fill="#e05d44" stroke="white" stroke-width="1" />
<path d="M 108.975698872 110.427197257 L 88.4635483078 90.6407958852 A 85.5 85.5 0 0 0 84.2501415131 95.3446607462 L 106.166761009 113.563107164 A 57.0 57.0 0 0 1 108.975698872 110.427197257 z" fill="#e05d44" stroke="white" stroke-width="1" />
<path d="M 106.166761009 113.563107164 L 84.2501415131 95.3446607462 A 85.5 85.5 0 0 0 76.4330967838 106.432113304 L 100.955397856 120.954742203 A 57.0 57.0 0 0 1 106.166761009 113.563107164 z" fill="#e05d44" stroke="white" stroke-width="1" />
<path d="M 84.2501415131 95.3446607462 L 62.3335220174 77.1262143283 A 114.0 114.0 0 0 0 54.8122790155 87.2680482228 L 78.6092092616 102.951036167 A 85.5 85.5 0 0 1 84.2501415131 95.3446607462 z" fill="#e05d44" stroke="white" stroke-width="1" />
<path d="M 78.6092092616 102.951036167 L 54.8122790155 87.2680482228 A 114.0 114.0 0 0 0 51.9107957117 91.9094844051 L 76.4330967838 106.432113304 A 85.5 85.5 0 0 1 78.6092092616 102.951036167 z" fill="#e05d44" stroke="white" stroke-width="1" />
<path d="M 100.955397856 120.954742203 L 76.4330967838 106.432113304 A 85.5 85.5 0 0 0 66.8596078388 130.051937656 L 94.5730718925 136.701291771 A 57.0 57.0 0 0 1 100.955397856 120.954742203 z" fill="#e05d44" stroke="white" stroke-width="1" />
<path d="M 94.5730718925 136.701291771 L 66.8596078388 130.051937656 A 85.5 85.5 0 0 0 65.1440573319 160.474683475 L 93.4293715546 156.983122317 A 57.0 57.0 0 0 1 94.5730718925 136.701291771 z" fill="#e05d44" stroke="white" stroke-width="1" />
<path d="M 66.8596078388 130.051937656 L 39.1461437851 123.402583541 A 114.0 114.0 0 0 0 36.2449441634 142.530912264 L 64.6837081225 144.398184198 A 85.5 85.5 0 0 1 66.8596078388 130.051937656 z" fill="#e05d44" stroke="white" stroke-width="1" />
<path d="M 64.6837081225 144.398184198 L 36.2449441634 142.530912264 A 114.0 114.0 0 0 0 36.8587431092 163.966244633 L 65.1440573319 160.474683475 A 85.5 85.5 0 0 1 64.6837081225 144.398184198 z" fill="#e05d44" stroke="white" stroke-width="1" />
<path d="M 121.714685777 153.491561158 L 93.4293715546 156.983122317 A 57.0 57.0 0 0 0 110.999236711 191.568503255 L 130.499618355 170.784251628 A 28.5 28.5 0 0 1 121.714685777 153.491561158 z" fill="#e05d44" stroke="white" stroke-width="1" />
<path d="M 93.4293715546 156.983122317 L 65.1440573319 160.474683475 A 85.5 85.5 0 0 0 66.8965918779 170.101580995 L 94.5977279186 163.401053997 A 57.0 57.0 0 0 1 93.4293715546 156.983122317 z" fill="#e05d44" stroke="white" stroke-width="1" />
<path d="M 94.5977279186 163.401053997 L 66.8965918779 170.101580995 A 85.5 85.5 0 0 0 67.282001923 171.632909978 L 94.8546679487 164.421939986 A 57.0 57.0 0 0 1 94.5977279186 163.401053997 z" fill="#efa41b" stroke="white" stroke-width="1" />
<path d="M 94.8546679487 164.421939986 L 67.282001923 171.632909978 A 85.5 85.5 0 0 0 70.0690406467 180.352787959 L 96.7126937644 170.235191972 A 57.0 57.0 0 0 1 94.8546679487 164.421939986 z" fill="#e05d44" stroke="white" stroke-width="1" />
<path d="M 96.7126937644 170.235191972 L 70.0690406467 180.352787959 A 85.5 85.5 0 0 0 76.1928294553 193.159605839 L 100.795219637 178.773070559 A 57.0 57.0 0 0 1 96.7126937644 170.235191972 z" fill="#e05d44" stroke="white" stroke-width="1" />
<path d="M 100.795219637 178.773070559 L 76.1928294553 193.159605839 A 85.5 85.5 0 0 0 80.1213700483 199.266896351 L 103.414246699 182.844597567 A 57.0 57.0 0 0 1 100.795219637 178.773070559 z" fill="#e05d44" stroke="white" stroke-width="1" />
<path d="M 103.414246699 182.844597567 L 80.1213700483 199.266896351 A 85.5 85.5 0 0 0 91.4988550664 212.352754883 L 110.999236711 191.568503255 A 57.0 57.0 0 0 1 103.414246699 182.844597567 z" fill="#cfb319" stroke="white" stroke-width="1" />
<path d="M 130.499618355 170.784251628 L 110.999236711 191.568503255 A 57.0 57.0 0 0 0 150.0 207.0 L 150.0 178.5 A 28.5 28.5 0 0 1 130.499618355 170.784251628 z" fill="#68cb09" stroke="white" stroke-width="1" />
<path d="M 110.999236711 191.568503255 L 91.4988550664 212.352754883 A 85.5 85.5 0 0 0 107.45529586 224.163320783 L 121.636863907 199.442213856 A 57.0 57.0 0 0 1 110.999236711 191.568503255 z" fill="#4c1" stroke="white" stroke-width="1" />
<path d="M 121.636863907 199.442213856 L 107.45529586 224.163320783 A 85.5 85.5 0 0 0 123.594065635 231.320210467 L 132.396043757 204.213473644 A 57.0 57.0 0 0 1 121.636863907 199.442213856 z" fill="#4c1" stroke="white" stroke-width="1" />
<path d="M 132.396043757 204.213473644 L 123.594065635 231.320210467 A 85.5 85.5 0 0 0 127.832841488 232.576431768 L 135.221894325 205.050954512 A 57.0 57.0 0 0 1 132.396043757 204.213473644 z" fill="#e05d44" stroke="white" stroke-width="1" />
<path d="M 135.221894325 205.050954512 L 127.832841488 232.576431768 A 85.5 85.5 0 0 0 150.0 235.5 L 150.0 207.0 A 57.0 57.0 0 0 1 135.221894325 205.050954512 z" fill="#4c1" stroke="white" stroke-width="1" />
</svg>